<svg id="ebHrd1wzjR81" xmlns="http://www.w3.org/2000/svg" xmlns:xlink="http://www.w3.org/1999/xlink" viewBox="0 0 52 52" shape-rendering="geometricPrecision" text-rendering="geometricPrecision"><style><![CDATA[#ebHrd1wzjR82 {animation: ebHrd1wzjR82_c_o 2000ms linear infinite normal forwards}@keyframes ebHrd1wzjR82_c_o { 0% {opacity: 1} 60% {opacity: 1} 85% {opacity: 0} 100% {opacity: 0}} #ebHrd1wzjR83 {animation: ebHrd1wzjR83_c_o 2000ms linear infinite normal forwards}@keyframes ebHrd1wzjR83_c_o { 0% {opacity: 1} 35% {opacity: 1} 60% {opacity: 0} 100% {opacity: 0}} #ebHrd1wzjR84 {animation: ebHrd1wzjR84_c_o 2000ms linear infinite normal forwards}@keyframes ebHrd1wzjR84_c_o { 0% {opacity: 1} 10% {opacity: 1} 35% {opacity: 0} 100% {opacity: 0}}]]></style><rect id="ebHrd1wzjR82" width="29.016282" height="6.681275" rx="0" ry="0" transform="matrix(1.24792796460765 0.13154359110826 -0.15153522520366 1.43758463306001 9.51424353806763 11.01617270700929)" fill="rgb(30,215,96)" stroke="none" stroke-width="0"/><rect id="ebHrd1wzjR83" width="29.016282" height="6.681275" rx="0" ry="0" transform="matrix(1.03765785736184 0.10937910261671 -0.10482882544995 0.99449028017110 11.29570862339510 21.74171275842497)" fill="rgb(30,215,96)" stroke="none" stroke-width="0"/><rect id="ebHrd1wzjR84" width="29.016282" height="6.681275" rx="0" ry="0" transform="matrix(0.99449028017110 0.10482882544995 -0.10482882544995 0.99449028017110 11.29570862465758 29.35243461112309)" fill="rgb(30,215,96)" stroke="none" stroke-width="0"/><path id="ebHrd1wzjR85" d="M25.252851,0.277000C11.446108,0.277000,0.253000,11.470076,0.253000,25.277149C0.253000,39.084819,11.446108,50.277000,25.252851,50.277000C39.061087,50.277000,50.253000,39.084819,50.253000,25.277149C50.253000,11.470972,39.061087,0.278194,25.252552,0.278194L25.252851,0.277000ZM36.717621,36.334391C36.269825,37.068794,35.308557,37.301653,34.574171,36.850861C28.704462,33.265423,21.315232,32.453400,12.613064,34.441662C11.774491,34.632726,10.938605,34.107299,10.747546,33.268408C10.555591,32.429517,11.078915,31.593611,11.919577,31.402547C21.442704,29.225908,29.611398,30.163615,36.201163,34.190890C36.935549,34.641682,37.168403,35.599988,36.717621,36.334391ZM39.777560,29.526237C39.213337,30.444241,38.013244,30.733823,37.096755,30.169586C30.376831,26.038122,20.133349,24.841881,12.184971,27.254663C11.154145,27.566038,10.065403,26.985084,9.752543,25.956024C9.442071,24.925173,10.023310,23.838496,11.052346,23.525031C20.131558,20.770125,31.418703,22.104588,39.135719,26.846861C40.052208,27.411097,40.341783,28.611219,39.777560,29.526536L39.777560,29.526237ZM40.040267,22.437757C31.982926,17.651898,18.689356,17.211853,10.996520,19.546717C9.761201,19.921382,8.454831,19.223998,8.080473,17.988648C7.706116,16.752702,8.402886,15.447196,9.639102,15.071636C18.469936,12.390767,33.150180,12.908730,42.426721,18.415856C43.540240,19.075326,43.904448,20.510397,43.244695,21.620062C42.587928,22.731219,41.149010,23.097525,40.041461,22.437757Z" transform="matrix(1 0 0 1 0.74700001000000 0.72300000000000)" fill="rgb(30,215,96)" stroke="rgb(30,215,96)" stroke-width="1"/></svg>